<?xml version="1.0" encoding="utf-8"?>
<!-- Generator: Adobe Illustrator 16.0.3, SVG Export Plug-In . SVG Version: 6.00 Build 0)  -->
<!DOCTYPE svg PUBLIC "-//W3C//DTD SVG 1.1//EN" "http://www.w3.org/Graphics/SVG/1.1/DTD/svg11.dtd" [
	<!ENTITY ns_extend "http://ns.adobe.com/Extensibility/1.0/">
	<!ENTITY ns_ai "http://ns.adobe.com/AdobeIllustrator/10.0/">
	<!ENTITY ns_graphs "http://ns.adobe.com/Graphs/1.0/">
	<!ENTITY ns_vars "http://ns.adobe.com/Variables/1.0/">
	<!ENTITY ns_imrep "http://ns.adobe.com/ImageReplacement/1.0/">
	<!ENTITY ns_sfw "http://ns.adobe.com/SaveForWeb/1.0/">
	<!ENTITY ns_custom "http://ns.adobe.com/GenericCustomNamespace/1.0/">
	<!ENTITY ns_adobe_xpath "http://ns.adobe.com/XPath/1.0/">
]>
<svg version="1.1" id="Ebene_1" xmlns:x="&ns_extend;" xmlns:i="&ns_ai;" xmlns:graph="&ns_graphs;"
	 xmlns="http://www.w3.org/2000/svg" xmlns:xlink="http://www.w3.org/1999/xlink" x="0px" y="0px" width="500px" height="500px"
	 viewBox="0 0 500 500" enable-background="new 0 0 500 500" xml:space="preserve">
<metadata>
	<sfw  xmlns="&ns_sfw;">
		<slices></slices>
		<sliceSourceBounds  height="16383" width="590.4744263" x="-153" y="-8442" bottomLeftOrigin="true"></sliceSourceBounds>
	</sfw>
</metadata>
<path fill-rule="evenodd" clip-rule="evenodd" stroke="#000000" stroke-width="12" stroke-miterlimit="10" d="M250,486.1298828
	C475.8916016,383.4208984,427.015625,62.7753906,427.015625,62.7753906S368.9121094,13.8696289,250,13.8696289
	c-118.9140625,0-177.015625,48.9057617-177.015625,48.9057617S24.1074219,383.4208984,250,486.1298828z"/>
<path fill-rule="evenodd" clip-rule="evenodd" stroke="#FFFFFF" stroke-width="12" stroke-miterlimit="10" d="M249.9995117,481.5
	C471.4628906,380.8056641,423.5449219,66.4467773,423.5449219,66.4467773S366.5810547,18.5,249.9995117,18.5
	S76.4555664,66.4467773,76.4555664,66.4467773S28.5371094,380.8056641,249.9995117,481.5z"/>
<path fill-rule="evenodd" clip-rule="evenodd" fill="#FFFFFF" d="M260.4658203,382.6513672
	c-6.8369141-4.1015625-13.9526367-3.0859375-21.1010742-1.1171875c-1.1967773,0.3300781-2.3930664,0.6806641-1.4194336,2.5263672
	c0.2402344,0.4560547-0.7050781,1.8515625-1.4150391,2.4433594c-9.0019531,7.5009766-10.8950195,13.5976563-6.9472656,24.6367188
	c1.0957031,3.0634766,0.6235352,4.4248047-2.3735352,5.5087891c-3.081543,1.1132813-6.0786133,2.5400391-8.9594727,4.1103516
	c-2.8896484,1.5722656-4.1108398,0.5791016-5.0253906-2.2626953c-2.894043-8.9853516-2.1616211-17.3339844,4.0927734-24.734375
	c2.5478516-3.0146484,5.347168-5.8212891,7.7392578-8.8974609c-17.5991211,6.6484375-21.0883789,21.6113281-21.7871094,38.1865234
	c-3.0834961,0.0800781-4.1142578-1.3212891-4.0092773-4.0234375c0.1142578-2.9277344,0.0263672-5.8623047,0.0263672-8.7929688
	c-0.4384766-0.03125-0.8774414-0.0605469-1.3164063-0.0908203c-0.3798828,1.9023438-0.6289063,3.84375-1.1933594,5.6904297
	c-0.355957,1.1679688-1.1826172,2.1923828-1.7993164,3.2792969c-1.3129883-1.2539063-2.9125977-2.3310547-3.828125-3.8291016
	c-0.5214844-0.8496094-0.0024414-2.3964844,0.1791992-3.6103516c2.2734375-15.2138672,18.1635742-33.8535156,34.7338867-36.1523438
	c3.1040039-0.4296875,6.2470703-1.1367188,9.1645508-2.2607422c14.7109375-5.6582031,28.9213867-2.8359375,42.8481445,2.6074219
	c5.2861328,2.0673828,10.1367188,5.2480469,15.1855469,7.9179688l-0.1611328-0.1523438
	c0.3222656,0.3271484,0.6464844,0.6542969,0.9697266,0.9804688l-0.1542969-0.1523438
	c0.3261719,0.3261719,0.6513672,0.6513672,0.9765625,0.9775391l-0.15625-0.1464844
	c0.8720703,0.8740234,1.7441406,1.7460938,2.6152344,2.6171875l-0.1445313-0.1474609
	c0.3251953,0.3232422,0.6513672,0.6484375,0.9775391,0.9707031l-0.1494141-0.1494141
	c0.3261719,0.3222656,0.6513672,0.6455078,0.9765625,0.9677734l-0.1494141-0.1513672
	c0.3242188,0.3212891,0.6484375,0.6425781,0.9697266,0.9638672l-0.1308594-0.1464844
	c0.5849609,0.8779297,1.1699219,1.7578125,1.7548828,2.6357422l-0.1210938-0.1386719
	c0.3232422,0.3183594,0.6464844,0.6357422,0.9677734,0.9550781l-0.1347656-0.1591797
	c0.5917969,0.8798828,1.1845703,1.7587891,1.7783203,2.6376953l-0.1513672-0.1669922
	c1.6601563,4.5996094,3.4677734,9.1572266,4.8964844,13.828125c0.4697266,1.53125,2.0986328,3.9238281-0.7441406,4.8964844
	c-2.9521484,1.0097656-3.1054688-1.8144531-3.9824219-3.5146484c-0.2382813-0.4638672-0.4345703-0.9501953-1.3183594-1.4365234
	c-0.1357422,1.4941406-0.109375,3.0224609-0.4423828,4.4707031c-0.5166016,2.2480469-1.0234375,4.5654297-2.0205078,6.6181641
	c-0.7421875,1.5292969-2.2539063,2.6884766-3.4208984,4.0117188c-0.1542969-1.6630859-0.3496094-3.3251953-0.4580078-4.9902344
	c-0.2841797-4.3554688-0.3212891-8.7421875-0.8369141-13.0722656c-1.3925781-11.6972656-9.3144531-17.6787109-19.4082031-21.6513672
	l-0.1455078,0.1533203l0.2109375-0.2304688c0.7675781,1.0410156,1.4150391,2.2021484,2.3193359,3.1064453
	c11.4707031,11.4609375,12.5253906,32.3876953,2.2226563,44.8876953c-0.1748047,0.2109375-0.3164063,0.46875-0.5322266,0.6230469
	c-1.5429688,1.0839844-3.1005859,2.1464844-4.6552734,3.2158203c-0.8300781-1.6308594-1.7626953-3.2197266-2.4609375-4.9042969
	c-0.6181641-1.4951172-0.9765625-3.0976563-1.7275391-5.5703125c-3.1601563,10.1035156-7.4550781,18.3613281-17.5068359,22.9140625
	c1.7158203-7.8691406,3.6992188-14.9316406,4.7050781-22.1289063c1.0283203-7.3564453,0.0087891-14.7070313-3.0537109-21.8203125
	c-0.2929688,2.3027344-0.5527344,4.6103516-0.8818359,6.9072266c-2.1953125,15.3427734-11.6953125,25.2294922-24.5087891,32.5517578
	c-0.7768555,0.4453125-2.5517578,0.2441406-3.1787109-0.3623047c-1.7231445-1.6708984-3.081543-3.7177734-4.855957-5.9560547
	c15.9462891-7.328125,27.2060547-17.6523438,27.0927734-36.3007813c-1.0048828,2.3300781-1.940918,4.6933594-3.0273438,6.984375
	c-6.4916992,13.6601563-17.9350586,20.5546875-32.2299805,23.5917969c-2.5258789,0.5371094-3.8461914-0.7041016-3.9492188-2.8085938
	c-0.0380859-0.7841797,1.6923828-2.1259766,2.8227539-2.4179688c9.0712891-2.3554688,17.3730469-5.9570313,23.4448242-13.4824219
	c0.6875-0.8505859,1.3164063-1.7519531,1.9199219-2.6669922c0.2880859-0.4345703,0.453125-0.9511719,0.6625977-1.4101563
	c-7.6040039-5.0820313-8.4091797-12.5019531-2.0996094-19.3916016c5.1914063-5.6689453,12.1181641-7.1025391,19.3891602-7.5869141
	c1.4853516-0.0986328,2.9599609-0.3203125,4.4375-0.4863281l-0.1748047,0.265625L260.4658203,382.6513672z"/>
<path fill-rule="evenodd" clip-rule="evenodd" fill="#FFFFFF" d="M279.6318359,311.875
	c-3.546875-1.5019531-6.8378906-1.2753906-9.9238281,1.3466797c-2.4033203,2.0419922-5.0351563,3.8134766-7.9785156,6.0136719
	c0-3.4267578-0.2617188-6.1816406,0.0634766-8.8671875c0.4609375-3.7978516-0.4785156-6.4179688-4.5048828-7.3388672
	c-0.3896484-0.0898438-0.7724609-0.2402344-1.1425781-0.4179688c-0.7197266-0.1230469-0.5585938-0.0126953-1.1787109-0.3769531
	c-0.6064453-0.3544922-0.6240234,0.3789063-1.0400391-0.1044922c-1.4082031-0.5673828-2.6464844,9.8203125-4.0571289,10.0869141
	c-0.5791016,0.3125-0.7285156,0.9267578-1.6640625,0.2089844c-0.7226563,0.3574219-3.1445313-10.8388672-3.8745117-10.1972656
	c-0.8798828,0.7734375-2.1879883,1.2509766-3.3706055,1.4541016c-3.2543945,0.5566406-4.0351563,2.5361328-3.9916992,5.5449219
	c0.0429688,3.0175781-0.40625,6.0439453-0.6879883,9.6943359c-1.262207-1.1738281-1.784668-1.8320313-2.4570313-2.2558594
	c-3.1000977-1.9707031-6.0410156-4.5361328-9.4399414-5.5625c-2.1333008-0.6425781-4.9736328,1.0625-7.4970703,1.7158203
	c1.2407227,1.4355469,2.2822266,3.1347656,3.7597656,4.2587891c5.1269531,3.8984375,10.434082,7.5595703,15.5991211,11.4101563
	c0.9199219,0.6845703,1.4858398,1.8447266,2.2158203,2.7861328c-0.3051758,0.2636719-0.6103516,0.5263672-0.9140625,0.7880859
	c-1.4946289-0.8867188-2.9560547-1.8408203-4.4931641-2.6474609c-3.7436523-1.9707031-6.1679688-0.75-6.6279297,3.3730469
	c-0.2890625,2.5859375-0.3510742,5.1962891-0.5898438,7.7919922c-0.1850586,2.0185547,0.4160156,3.1455078,2.6816406,3.0263672
	c5.6118164-0.2919922,9.9145508,2.0771484,13.6977539,6.1855469c5.0302734,5.4589844,9.1738281,5.0859375,13.3154297-1.0625
	c2.3095703-3.4267578,5.4609375-4.7871094,9.2880859-5.2480469c2.4941406-0.3017578,6.0087891,0.21875,7.2050781-1.1982422
	c1.3476563-1.5957031,0.609375-4.9570313,0.7617188-7.5498047c0.0410156-0.6835938,0.0673828-1.3740234,0.0224609-2.0556641
	c-0.2421875-3.8027344-2.0439453-5.2539063-5.7167969-4.0996094c-2.2900391,0.7197266-4.3642578,2.1279297-6.5361328,3.2275391
	c-0.3271484-0.1162109-0.6542969-0.2324219-0.9814453-0.3486328c0.4541016-1.046875,0.6210938-2.4746094,1.4150391-3.0712891
	c3.0458984-2.2851563,6.2587891-4.359375,9.4726563-6.4121094c3.3359375-2.1357422,6.78125-4.1054688,10.0976563-6.2685547
	c0.7246094-0.4697266,1.1142578-1.4501953,1.6582031-2.1962891
	C281.3583984,312.9570313,280.5585938,312.2685547,279.6318359,311.875z"/>
<path fill-rule="evenodd" clip-rule="evenodd" fill="#FFFFFF" d="M208.0991211,352.1591797
	c-4.6054688,3.8759766-9.5444336,7.4248047-13.7441406,11.7001953c-8.0092773,8.1542969-17.2768555,14.34375-27.5136719,19.2138672
	c-1.0146484,0.4824219-2.1914063,0.6230469-3.2929688,0.9238281c-0.2304688-0.2880859-0.4589844-0.5751953-0.6879883-0.8632813
	c0.7607422-1.1416016,1.4199219-2.3701172,2.2963867-3.4130859c5.6552734-6.7353516,9.6069336-14.1806641,11.2578125-22.9804688
	c1.6835938-8.9726563,8.1728516-14.6386719,17.2075195-15.5537109c10.7993164-1.09375,21.3803711,0.1386719,31.5151367,4.1962891
	c5.4619141,2.1855469,9.9682617,5.7294922,13.5219727,10.4287109c0.7875977,1.0410156,1.3662109,2.2412109,2.331543,3.8544922
	c-2.9765625,0.6318359-5.3989258,0.9736328-7.7182617,1.6660156c-11.1479492,3.3330078-22.2626953,6.7763672-33.4042969,10.1308594
	c-1.2026367,0.3623047-2.5014648,0.4091797-3.7553711,0.6015625c0.2236328-1.2958984,0.2163086-2.6875,0.7114258-3.8681641
	c2.2509766-5.3720703,5.2958984-10.2070313,9.9047852-13.9404297c0.6147461-0.4980469,0.8789063-1.4287109,1.3061523-2.1591797
	c0.7817383-0.0507813,1.5654297-0.1015625,2.3486328-0.1523438c0.5078125-0.3769531,1.0161133-0.7548828,1.5244141-1.1337891
	c-0.0654297-0.0166016-0.1303711-0.0351563-0.1967773-0.0527344c0.0634766-0.0136719,0.1259766-0.0292969,0.1879883-0.0419922
	c-0.03125,0.0664063-0.0634766,0.1318359-0.0957031,0.1972656c-0.4458008,0.3681641-0.8930664,0.7373047-1.3393555,1.1064453
	C209.6757813,352.0644531,208.8867188,352.1123047,208.0991211,352.1591797z"/>
<path fill-rule="evenodd" clip-rule="evenodd" fill="#FFFFFF" d="M280.5810547,349.1015625
	c11.9072266,4.0585938,19.0322266,12.7822266,24.390625,24.5380859c-8.0214844-3.0722656-15.1816406-6.3310547-22.6523438-8.5292969
	c-7.5673828-2.2275391-15.4423828-3.4013672-23.8476563-5.1767578c2.6298828-4.7275391,5.9638672-8.7675781,10.4550781-11.2373047
	c4.7294922-2.5996094,9.8896484-4.9306641,15.1367188-5.9404297c6.8144531-1.3095703,13.9052734-1.1337891,20.8681641-1.7148438
	c5.6826172-0.4755859,9.859375,2.0546875,12.8388672,6.5498047c1.71875,2.5947266,3.3115234,5.4638672,4.1162109,8.4355469
	c2.2988281,8.4892578,6.1835938,16.0849609,11.578125,22.9677734c0.4228516,0.5380859,0.9482422,1.0585938,1.1708984,1.6767578
	c0.1953125,0.5419922,0.1933594,1.2851563-0.0380859,1.7978516c-0.1113281,0.2470703-1.0234375,0.3613281-1.4433594,0.2001953
	c-1.2763672-0.4892578-2.4960938-1.1279297-3.7265625-1.7314453c-12.5751953-6.1425781-23.3564453-14.7841797-33.7167969-24.0458984
	C288.9746094,350.8691406,287.1064453,349.9794922,280.5810547,349.1015625z"/>
<path fill-rule="evenodd" clip-rule="evenodd" fill="#FFFFFF" d="M385.6689453,264.8603516
	c-1.7050781,22.4667969-4.4414063,44.7568359-13.5107422,65.6708984
	c-3.5332031,8.1484375-7.7529297,16.0078125-11.8535156,23.8984375c-1.9541016,3.7568359-2.3007813,3.6767578-5.7929688,1.0292969
	c-6.1347656-4.6464844-6.0458984-4.5810547-1.4716797-10.8671875
	c11.9677734-16.4414063,18.8671875-35.1835938,23.9589844-54.6054688c2.4960938-9.5166016,3.8935547-19.3212891,5.78125-28.9980469
	c0.1308594-0.6699219,0.0488281-1.4199219,0.3212891-2.0185547c0.4580078-1.0029297,1.1201172-1.9150391,1.6943359-2.8642578
	c0.4326172,1.0029297,1.1757813,1.9951172,1.2265625,3.0185547
	C386.1181641,261.0263672,385.8095703,262.9472656,385.6689453,264.8603516z"/>
<path fill-rule="evenodd" clip-rule="evenodd" fill="#FFFFFF" d="M322.4648438,272.6416016
	c-7.7783203,1.5253906-15.5546875,3.0859375-23.2880859,4.8310547c-3.3193359,0.75-6.5019531,2.0791016-9.8007813,2.9355469
	c-4.0693359,1.0566406-8.1542969,2.1953125-12.3056641,2.7646484c-3.1064453,0.4287109-6.2255859,0.75-9.3466797,1.0654297
	c-0.1689453,5.3486328-2.6220703,10.4931641-5.0019531,15.2666016c4.4443359-0.5888672,8.2832031-2.4902344,12.1347656-4.6992188
	c3.6298828-2.0830078,7.6210938-3.6103516,11.5810547-5.0263672c2.9492188-1.0556641,6.1132813-1.5009766,9.1650391-2.2851563
	c10.0175781-2.5791016,19.5361328-6.3515625,28.1992188-12.0800781c0.8105469-0.5351563,1.2802734-1.5800781,1.9082031-2.3886719
	C324.6259766,272.8818359,323.4833984,272.4423828,322.4648438,272.6416016z"/>
<path fill-rule="evenodd" clip-rule="evenodd" fill="#FFFFFF" d="M317.2324219,340.2490234
	c8.6396484,0.5126953,15.7958984,3.2910156,21.5693359,9.1123047c3.9589844,3.9931641,7.7050781,8.1962891,11.6572266,12.1943359
	c1.5771484,1.5947266,2.1337891,3.2148438,0.8916016,5.0996094c-2.8505859,4.3300781-5.7216797,8.6533203-8.7480469,12.8613281
	c-1.7763672,2.46875-3.7519531,2.5771484-6.0810547,0.2617188c-4.5917969-4.5742188-8.1230469-9.6201172-8.8896484-16.2548828
	c-0.9472656-8.1845703-3.4541016-15.5341797-10.8798828-20.2871094c-0.6201172-0.3964844-0.8017578-1.4804688-1.1875-2.2460938
	C316.2714844,340.6757813,316.9785156,340.3623047,317.2324219,340.2490234z"/>
<path fill-rule="evenodd" clip-rule="evenodd" fill="#FFFFFF" d="M235.0126953,297.5498047
	c-0.1777344-0.7246094-0.3666992-1.4394531-0.5585938-2.1523438c-1.5283203-3.1933594-2.3837891-6.7519531-2.6728516-10.2714844
	c-5.2612305-0.6806641-10.5097656-1.4355469-15.6904297-2.5078125c-13.6606445-2.8232422-27.1826172-6.3154297-40.7802734-9.4472656
	c-1.277832-0.2939453-2.6816406-0.0400391-4.0273438-0.0400391l-0.2636719,0.9003906
	c0.7910156,0.6455078,1.4897461,1.4951172,2.3886719,1.9052734c6.0893555,2.7851563,12.0712891,5.9052734,18.371582,8.1083984
	c12.1367188,4.2421875,24.6542969,7.3505859,36.2114258,13.2695313c2.3769531,1.2177734,5.1484375,1.9169922,7.90625,2.2861328
	C235.5146484,299.0253906,235.2084961,298.3486328,235.0126953,297.5498047z"/>
<path fill-rule="evenodd" clip-rule="evenodd" fill="#FFFFFF" d="M181.2583008,341.0136719
	c0.3129883,0.1552734,1.3505859,0.4257813,1.3564453,0.7207031c0.0146484,0.6679688-0.2871094,1.6953125-0.7915039,1.9716797
	c-7.1323242,3.9277344-8.8388672,10.7285156-9.8061523,18.0029297c-1.0283203,7.7431641-4.8129883,13.8554688-11.081543,18.5322266
	c-2.0371094,1.5195313-3.4472656,1.7861328-5.0058594-0.5976563c-2.5512695-3.9013672-5.4311523-7.5878906-7.9145508-11.5283203
	c-0.6508789-1.0332031-0.9541016-3.0195313-0.3950195-3.9658203c7.3725586-12.4746094,18.0683594-20.3740234,32.4785156-22.9521484
	C180.3686523,341.1484375,180.6396484,341.1123047,181.2583008,341.0136719z"/>
<path fill-rule="evenodd" clip-rule="evenodd" fill="#FFFFFF" d="M110.1152344,258.9208984
	c0-1.6435547-0.0869141-3.2939453,0.0493164-4.9267578c0.0444336-0.546875,0.6567383-1.0449219,1.0092773-1.5664063
	c0.5395508,0.4863281,1.425293,0.8925781,1.5546875,1.46875c0.4501953,2,0.6069336,4.0615234,0.9306641,6.0927734
	c3.6538086,22.9384766,8.0439453,45.7001953,19.5688477,66.2666016c4.140625,7.3876953,9.0229492,14.3808594,13.8833008,21.3349609
	c1.7524414,2.5058594,2.0166016,3.9140625-0.4545898,6.0634766c-5.6176758,4.8808594-4.7436523,5.3886719-8.5800781-1.4375
	c-15.3168945-27.2568359-24.8208008-56.3339844-27.550293-87.546875c-0.1660156-1.9091797-0.2036133-3.8300781-0.300293-5.7480469
	C110.1894531,258.921875,110.1523438,258.9208984,110.1152344,258.9208984z"/>
<path fill-rule="evenodd" clip-rule="evenodd" fill="#FFFFFF" d="M195.190918,336.984375
	c-2.8608398,0.2207031-5.7348633,0.6875-8.5786133,0.5507813c-1.3496094-0.0673828-3.0957031-0.9599609-3.8823242-2.0449219
	c-3.5078125-4.8320313-3.3710938-5.1376953,1.8583984-8.2275391c7.9399414-4.6884766,16.3974609-8.0654297,25.3994141-10.1347656
	c2.8955078-0.6650391,5.0493164-0.1708984,6.5771484,2.5136719c0.534668,0.9384766,1.3359375,1.7246094,2.0214844,2.5771484
	c3.9399414,4.8984375,3.9223633,5.4492188-0.8544922,9.4912109c-3.6547852,3.0927734-7.9169922,4.8701172-12.7045898,5.1074219
	c-3.2705078,0.1650391-6.5556641,0.0322266-9.8339844,0.0322266
	C195.1923828,336.8955078,195.1914063,336.9404297,195.190918,336.984375z"/>
<path fill-rule="evenodd" clip-rule="evenodd" fill="#FFFFFF" d="M299.9941406,337.2490234
	c-0.5488281,0-1.0947266-0.0097656-1.6435547,0.0009766c-12.2890625,0.2763672-12.2587891,0.2519531-19.9199219-9.1396484
	c-1.2646484-1.5517578-1.4023438-2.5917969-0.0224609-4.2041016c6.4101563-7.4853516,6.4462891-7.7734375,15.8261719-4.6142578
	c7.5029297,2.5244141,14.8388672,5.5849609,22.1152344,8.7197266c3.4599609,1.4921875,3.2431641,2.1210938,0.7744141,5.0039063
	c-2.40625,2.8115234-5.1679688,4.2041016-8.9257813,3.8837891c-2.7158203-0.2304688-5.4677734-0.0439453-8.2041016-0.0439453
	C299.9941406,336.9873047,299.9941406,337.1191406,299.9941406,337.2490234z"/>
<path fill-rule="evenodd" clip-rule="evenodd" fill="#FFFFFF" d="M186.3842773,414.2207031
	c-2.7514648-2.4121094-5.2797852-4.4560547-7.5371094-6.7617188c-0.4331055-0.4453125-0.1855469-2.3417969,0.3886719-2.8681641
	c7.3730469-6.7285156,14.8647461-13.3271484,22.3105469-19.9775391c0.2543945-0.2275391,0.3413086-0.6435547,0.6245117-1.2050781
	c-6.9238281,3.7373047-13.5522461,7.4453125-20.3051758,10.9101563c-3.4042969,1.7460938-7,3.140625-10.5742188,4.5273438
	c-2.2744141,0.8808594-4.8823242-0.6845703-5.0898438-3.0458984c-0.0551758-0.6269531,0.7788086-1.7851563,1.4042969-1.953125
	c12.2880859-3.2587891,22.5917969-10.4033203,33.2758789-16.8125c4.3154297-2.5888672,9.0463867-3.0224609,13.9135742-2.2929688
	c0.6464844,0.0976563,1.2539063,0.7744141,1.7460938,1.3066406c0.0849609,0.0957031-0.3989258,1.0048828-0.7905273,1.2060547
	C200.6948242,384.9423828,193.5893555,398.9970703,186.3842773,414.2207031z"/>
<path fill-rule="evenodd" clip-rule="evenodd" fill="#FFFFFF" d="M293.2607422,383.7871094
	c-2.9794922-2.3125-5.9785156-4.5986328-8.9228516-6.9541016c-0.6679688-0.5380859-1.1396484-1.3212891-1.7021484-1.9902344
	c0.7958984-0.4091797,1.5546875-1.0458984,2.3945313-1.1855469c6.2744141-1.0332031,12.1640625,0.1484375,16.8417969,4.5078125
	c7.6474609,7.1279297,16.7900391,11.0800781,26.6542969,13.8398438c1.1035156,0.3076172,2.8330078,1.8779297,2.6914063,2.5009766
	c-0.4628906,2.0273438-2.1376953,2.6142578-4.171875,1.7392578c-7.1494141-3.0791016-14.296875-6.1611328-21.4667969-9.1884766
	c-1.4365234-0.6074219-2.96875-0.984375-4.4570313-1.4658203c0.0517578-0.1621094,0.1025391-0.3242188,0.1552734-0.4873047
	c-0.0498047,0.0390625-0.1435547,0.0849609-0.1396484,0.1142578c0.0146484,0.1044922,0.0634766,0.2021484,0.0996094,0.3007813
	c4.9111328,5.2773438,9.8574219,10.5253906,14.7060547,15.8613281c0.7871094,0.8652344,1.8769531,2.7509766,1.5830078,3.0908203
	c-1.4736328,1.7050781-3.3613281,3.0517578-5.1044922,4.5234375c-0.6484375-0.8085938-1.3720703-1.5683594-1.9326172-2.4365234
	c-2.2597656-3.5068359-4.4677734-7.0478516-6.6953125-10.5751953l0.1513672,0.1669922
	c-0.59375-0.8789063-1.1865234-1.7578125-1.7783203-2.6376953l0.1347656,0.1591797
	c-0.3212891-0.3193359-0.6445313-0.6367188-0.9677734-0.9550781l0.1210938,0.1386719
	c-0.5849609-0.8779297-1.1699219-1.7578125-1.7548828-2.6357422l0.1308594,0.1464844
	c-0.3242188-0.3212891-0.6455078-0.6425781-0.9697266-0.9638672l0.1494141,0.1513672
	c-0.3251953-0.3222656-0.6503906-0.6455078-0.9765625-0.9677734l0.1494141,0.1494141
	c-0.3261719-0.3222656-0.6523438-0.6474609-0.9775391-0.9707031l0.1445313,0.1474609
	c-0.8710938-0.8710938-1.7431641-1.7431641-2.6152344-2.6171875l0.15625,0.1464844
	c-0.3251953-0.3261719-0.6503906-0.6513672-0.9765625-0.9775391l0.1542969,0.1523438
	c-0.3232422-0.3261719-0.6474609-0.6533203-0.9697266-0.9804688L293.2607422,383.7871094z"/>
<path fill-rule="evenodd" clip-rule="evenodd" stroke="#FFFFFF" stroke-width="2" stroke-miterlimit="10" d="
	M219.6147461,305.2275391c-7.3183594,1.5908203-13.5942383,3.421875-19.9643555,4.1269531
	c-2.7724609,0.3037109-6.4301758-0.7822266-8.4692383-2.8515625c-5.3417969-5.4248047-10.0556641-11.6904297-14.9038086-17.7460938
	c-0.6953125-0.8701172-0.7524414-2.4287109-1.1049805-3.6708984c1.0805664-0.1435547,2.3193359-0.7646484,3.2172852-0.3642578
	c13.0087891,5.8115234,25.9755859,11.7451172,38.9287109,17.7216797
	C217.9702148,302.7421875,218.3955078,303.7119141,219.6147461,305.2275391z"/>
<path fill-rule="evenodd" clip-rule="evenodd" fill="#FFFFFF" d="M277.9238281,302.6259766
	c1.3310547-0.6640625,2.6425781-1.4033203,4.0029297-1.9853516c11.8867188-5.0732422,23.7841797-10.1191406,35.6757813-15.1826172
	c0.8125-0.3457031,1.5761719-1.0048828,2.4013672-1.1054688c0.7578125-0.0927734,1.9130859,0.09375,2.2529297,0.6679688
	c0.3222656,0.546875,0.0869141,2.0273438-0.3642578,2.6308594c-4.7773438,6.3691406-9.3964844,12.9501953-14.5878906,18.8427734
	c-3.2685547,3.7070313-7.6386719,4.1191406-12.2197266,2.5527344c-5.5634766-1.9042969-11.2724609-3.2480469-16.921875-4.8369141
	C278.0830078,303.6826172,278.0029297,303.1533203,277.9238281,302.6259766z"/>
<path fill-rule="evenodd" clip-rule="evenodd" fill="#FFFFFF" d="M272.0917969,309.1376953
	c-1.1259766,0.5791016-1.9023438,1.2109375-2.7587891,1.3642578c-1.5644531,0.2773438-3.1757813,0.2705078-4.7685547,0.3818359
	c0.8583984-1.4726563,1.3867188-3.3935547,2.6435547-4.3271484
	C270.0712891,304.4296875,270.5859375,307.4677734,272.0917969,309.1376953z"/>
<path fill-rule="evenodd" clip-rule="evenodd" fill="#FFFFFF" d="M226.4389648,308.5136719
	c1.4091797-0.9316406,2.8183594-1.8642578,4.2290039-2.796875c0.9482422,1.6679688,1.8979492,3.3349609,2.847168,5.0039063
	c-0.2773438,0.3525391-0.5551758,0.7041016-0.8330078,1.0566406c-2.0180664-0.6259766-4.0366211-1.25-6.0551758-1.8759766
	C226.5639648,309.4384766,226.5014648,308.9746094,226.4389648,308.5136719z"/>
<path fill-rule="evenodd" clip-rule="evenodd" fill="#FFFFFF" d="M247.8540039,308.1201172
	c0.418457,0.9501953,0.7822266,1.9257813,1.0893555,2.9101563c0.1010742,0.3222656,0.2016602,0.6552734,0.3022461,0.9902344
	v-114.097168c0,0-94.0146484-2.9111328-105.6616211,55.3276367c0,0,52.7451172,23.9384766,82.3662109,22.8798828
	C235.1948242,275.8007813,244.4326172,291.4560547,247.8540039,308.1201172z"/>
<path fill-rule="evenodd" clip-rule="evenodd" fill="#FFFFFF" d="M248.4130859,197.9233398v111.559082
	c0.1923828,0.5126953,0.3686523,1.0302734,0.5302734,1.5478516c0.0717773,0.2294922,0.1411133,0.4638672,0.215332,0.7011719
	c2.7358398-17.9384766,12.6420898-35.9541016,22.5522461-35.6005859
	c29.6220703,1.0585938,82.3652344-22.8798828,82.3652344-22.8798828
	C342.4287109,195.012207,248.4130859,197.9233398,248.4130859,197.9233398z"/>
<path fill-rule="evenodd" clip-rule="evenodd" fill="#FFFFFF" d="M144.831543,248.2597656
	c0,0-20.6953125-17.3686523-15.0800781-48.5678711c5.6162109-31.1992188,11.5390625-29.1821289,15.3920898-54.9111328
	c2.9121094-19.4477539-1.0849609-46.9296875-2.4960938-61.9829102
	c-1.2480469-13.3115234,23.9604492,61.8525391,24.1269531,78.2070313c0.3125,30.5751953-26.6225586,53.2470703-3.7431641,60.3188477
	"/>
<path fill-rule="evenodd" clip-rule="evenodd" fill="#FFFFFF" d="M350.40625,247.0117188
	c0,0,20.6962891-17.3681641,15.0800781-48.5673828c-5.6152344-31.199707-11.5380859-29.1826172-15.390625-54.9111328
	c-2.9130859-19.4472656,1.0849609-46.9301758,2.4960938-61.9833984
	c1.2470703-13.3115234-23.9609375,61.8530273-24.1279297,78.2070313
	c-0.3115234,30.5751953,26.6230469,53.2470703,3.7441406,60.3188477"/>
<path fill-rule="evenodd" clip-rule="evenodd" d="M175.0952148,338.2177734"/>
<path fill-rule="evenodd" clip-rule="evenodd" fill="#FFFFFF" d="M143.5839844,253.2509766
	c0,0-5.5263672,64.0898438-3.2246094,75.6074219c0.2080078,1.0390625,28.2875977,8.7353516,28.2875977,8.7353516
	c7.4873047-23.296875,7.9042969-24.1279297,7.9042969-24.1279297c-0.8320313-7.0722656-17.6518555-16.7275391-16.8476563-28.2871094
	c1.0395508-14.9755859,32.2392578-34.5283203,33.0717773-55.7436523
	C193.6064453,208.2192383,144.9360352,251.0664063,143.5839844,253.2509766z"/>
<path fill-rule="evenodd" clip-rule="evenodd" fill="#FFFFFF" d="M353.734375,253.2509766
	c0,0,5.5263672,64.0898438,3.2236328,75.6074219c-0.2070313,1.0390625-28.2861328,8.7353516-28.2861328,8.7353516
	c-7.4873047-23.296875-7.9052734-24.1279297-7.9052734-24.1279297c0.8320313-7.0722656,17.6523438-16.7275391,16.8476563-28.2871094
	c-1.0390625-14.9755859-32.2392578-34.5283203-33.0712891-55.7436523
	C303.7119141,208.2192383,352.3828125,251.0664063,353.734375,253.2509766z"/>
<path fill-rule="evenodd" clip-rule="evenodd" fill="#FFFFFF" d="M124.5517578,283.3066406
	c0,0,5.4077148-5.4082031,8.3193359-5.1992188c2.9130859,0.2070313,5.4086914,25.1669922,2.496582,33.6953125
	c-2.9121094,8.5273438-11.2324219-20.3847656-11.0239258-27.6630859"/>
<path fill-rule="evenodd" clip-rule="evenodd" fill="#FFFFFF" d="M372.3222656,284.5546875
	c0,0-5.4072266-5.4091797-8.3203125-5.1992188c-2.9111328,0.2060547-5.4072266,25.1650391-2.4960938,33.6953125
	c2.9130859,8.5283203,11.2324219-20.3847656,11.0253906-27.6650391"/>
<path fill-rule="evenodd" clip-rule="evenodd" d="M191.65625,313.5175781"/>
<path fill-rule="evenodd" clip-rule="evenodd" d="M168.2314453,295.7871094c0,0,23.8125,19.8056641,23.6591797,22.7226563
	c-0.15625,2.9638672-7.7993164,1.7158203-12.8432617,5.7724609c-7.0229492,5.6464844-0.9370117-5.2011719-0.7285156-12.4794922"/>
<path fill-rule="evenodd" clip-rule="evenodd" fill="#FFFFFF" d="M327.921875,294.5390625
	c0,0-23.8125,19.8066406-23.6591797,22.7226563c0.1552734,2.9638672,7.7998047,1.7158203,12.8417969,5.7714844
	c7.0224609,5.6464844,0.9384766-5.2001953,0.7294922-12.4794922"/>
<g>
	<path fill="#FFFFFF" d="M257.8535156,191.5800781h-18.7646484v-77.6083984l-16.059082,6.9199219V98.453125l16.059082-6.9189453
		h18.7646484V191.5800781z"/>
</g>
<path fill-rule="evenodd" clip-rule="evenodd" fill="#FFFFFF" d="M169.4794922,295.7871094
	c0,0,23.8120117,19.8056641,23.6591797,22.7226563c-0.15625,2.9638672-7.800293,1.7158203-12.8432617,5.7724609
	c-7.0229492,5.6464844-0.9370117-5.2011719-0.7290039-12.4794922"/>
<g>
	<rect x="-153" y="18" fill-rule="evenodd" clip-rule="evenodd" fill="none" width="9" height="0"/>
</g>
<g>
</g>
<g>
	<path fill-rule="evenodd" clip-rule="evenodd" fill="none" d="M172.1850586,85.2949219
		c0,0,77.7890625-24.8681641,154.3344727,3.328125"/>
	<path fill="#FFFFFF" d="M203.0205078,78.1904297l-6.9716797,1.4472656l-3.2387695-5.9301758l-10.1367188,2.1044922
		l-0.6103516,6.7294922l-6.7578125,1.4033203l3.578125-31.9731445l8.1264648-1.6870117L203.0205078,78.1904297z
		 M183.2280273,69.6738281l6.5864258-1.3676758l-5.53125-10.0942383L183.2280273,69.6738281z"/>
	<path fill="#FFFFFF" d="M204.2016602,71.0766602l7.1425781-0.9614258l0.9619141,7.1425781l-7.1430664,0.9619141
		L204.2016602,71.0766602z"/>
	<path fill="#FFFFFF" d="M214.7832031,46.1088867l20.3876953-1.5136719l0.4365234,5.8808594l-13.6352539,1.0126953
		l0.5727539,7.7109375l11.4570313-0.8510742l0.4365234,5.8813477l-11.4570313,0.8505859l0.8183594,11.0219727l-6.7524414,0.5009766
		L214.7832031,46.1088867z"/>
	<path fill="#FFFFFF" d="M236.0283203,68.1376953l7.2055664-0.1811523l0.1811523,7.2055664l-7.2055664,0.1811523
		L236.0283203,68.1376953z"/>
	<path fill="#FFFFFF" d="M265.6152344,75.7871094l-10.6875-0.5498047c-4.0581055-0.2084961-6.6650391-3.0981445-6.4541016-7.1987305
		l0.8657227-16.8393555c0.2109375-4.1005859,3.1000977-6.7080078,7.1567383-6.4990234l10.6894531,0.5493164
		c4.0996094,0.2109375,6.7070313,3.1005859,6.4960938,7.2011719l-0.8652344,16.8393555
		C272.6054688,73.390625,269.7148438,75.9980469,265.6152344,75.7871094z M266.9023438,52.4521484
		c0.0449219-0.8725586-0.3691406-1.3310547-1.2421875-1.3759766l-8.2011719-0.421875
		c-0.8730469-0.0449219-1.3300781,0.3691406-1.375,1.2416992l-0.8300781,16.1411133
		c-0.0449219,0.8725586,0.3691406,1.3310547,1.2402344,1.3759766l8.2011719,0.421875
		c0.8730469,0.0449219,1.3320313-0.3691406,1.3769531-1.2416992L266.9023438,52.4521484z"/>
	<path fill="#FFFFFF" d="M277.9902344,69.7626953l7.1425781,0.9619141l-0.9609375,7.1425781l-7.1425781-0.9619141
		L277.9902344,69.7626953z"/>
	<path fill="#FFFFFF" d="M305.8574219,82.171875l-10.4375-2.3701172c-3.9628906-0.8999023-6.0371094-4.1933594-5.1269531-8.1982422
		l3.734375-16.4443359c0.9082031-4.0048828,4.2011719-6.0791016,8.1640625-5.1796875l10.4375,2.3706055
		c4.0039063,0.9091797,6.0800781,4.2026367,5.1699219,8.2070313l-3.734375,16.4448242
		C313.1542969,81.0063477,309.8613281,83.0810547,305.8574219,82.171875z M311.1171875,59.3984375
		c0.1933594-0.8520508-0.1347656-1.3745117-0.9863281-1.5678711l-8.0097656-1.8188477
		c-0.8515625-0.1933594-1.375,0.1357422-1.5683594,0.987793l-3.5800781,15.7626953
		c-0.1933594,0.8520508,0.1367188,1.375,0.9882813,1.5683594l8.0097656,1.8188477
		c0.8515625,0.1933594,1.375-0.1357422,1.5683594-0.987793L311.1171875,59.3984375z"/>
</g>
<line fill="none" stroke="#000000" stroke-width="3" stroke-miterlimit="10" x1="231.3574219" y1="204.4760742" x2="226.6777344" y2="270.8261719"/>
<line fill="none" stroke="#000000" stroke-width="3" stroke-miterlimit="10" x1="265.3662109" y1="202.9155273" x2="270.0449219" y2="271.8652344"/>
<line fill="none" stroke="#000000" stroke-width="2" stroke-miterlimit="10" x1="332.1318359" y1="224.4433594" x2="326.5166016" y2="260.0097656"/>
<line fill="none" stroke="#000000" stroke-width="2" stroke-miterlimit="10" x1="164.9033203" y1="225.6914063" x2="171.7670898" y2="258.7626953"/>
<line fill="none" stroke="#000000" stroke-width="2" stroke-miterlimit="10" x1="142.6474609" y1="250.0273438" x2="165.5273438" y2="217.9951172"/>
<line fill="none" stroke="#000000" stroke-width="2" stroke-miterlimit="10" x1="355.2197266" y1="248.7783203" x2="329.8457031" y2="216.7470703"/>
<g>
</g>
<g>
</g>
<g>
</g>
<g>
</g>
<g>
</g>
<g>
</g>
<g>
</g>
<g>
</g>
<g>
</g>
<g>
</g>
<g>
</g>
<g>
</g>
<g>
</g>
<g>
</g>
<g>
</g>
</svg>
